<svg version="1.1" id="Layer_1" xmlns="http://www.w3.org/2000/svg" xmlns:xlink="http://www.w3.org/1999/xlink" x="0px" y="0px"
	 width="100%" viewBox="0 0 816 240" enable-background="new 0 0 816 240" xml:space="preserve">
<path fill="#FFBC0D" opacity="1.000000" stroke="none"
	d="
M721.000000,179.191711
	C721.000000,187.630646 721.000000,195.588181 721.000000,203.768539
	C712.974915,203.768539 705.362671,203.768539 697.479248,203.768539
	C696.992615,197.547638 696.364197,191.208145 696.026489,184.853210
	C695.272766,170.670670 695.358521,156.405167 693.831482,142.311142
	C691.610901,121.815910 689.274292,101.207306 681.888062,81.734818
	C679.742065,76.077179 676.609924,70.606628 672.987732,65.753426
	C669.935486,61.663677 666.247620,61.726494 663.039368,65.683792
	C659.827393,69.645683 656.524963,74.157188 655.255737,78.955139
	C651.325500,93.812317 647.758301,108.820496 645.173889,123.961853
	C642.974304,136.848785 641.939941,149.976135 641.097290,163.042725
	C640.022766,179.704712 639.661316,196.412628 638.981445,213.100327
	C638.962280,213.571487 638.817993,214.037537 638.688416,214.744034
	C630.904907,214.744034 623.175903,214.744034 614.551147,214.744034
	C615.033813,204.504120 615.473206,194.465439 615.994385,184.430984
	C616.250366,179.500290 616.655579,174.577301 616.996887,169.651077
	C618.872009,142.587997 623.472717,116.000618 633.199768,90.638145
	C637.167358,80.293060 642.150574,69.863571 648.850464,61.147182
	C659.954346,46.701458 675.586487,46.349873 688.286621,61.932423
	C698.441040,74.391525 704.117798,89.188980 708.511963,104.728294
	C711.721619,96.462921 714.470337,88.171921 718.112976,80.294258
	C723.294067,69.089554 729.615356,58.459385 741.099243,52.512714
	C748.664368,48.595329 757.003296,50.372993 763.509460,56.019028
	C776.127014,66.968590 781.846130,81.913605 786.897339,97.103355
	C792.333862,113.451851 796.246094,130.210846 797.977478,147.390137
	C799.474304,162.242279 800.728394,177.119858 801.976318,191.995697
	C802.596985,199.394714 802.963013,206.815063 803.470459,214.629410
	C795.146301,214.629410 787.413818,214.629410 779.434387,214.629410
	C778.967712,209.467499 778.373352,204.120010 778.018982,198.756668
	C776.640137,177.887405 776.077087,156.931030 773.773499,136.166519
	C771.916077,119.424011 768.332947,102.837692 764.799988,86.335258
	C763.542664,80.462456 760.729614,74.717697 757.656067,69.484612
	C752.447876,60.616798 745.590027,60.573204 741.248657,69.928833
	C736.597595,79.951675 732.879333,90.579567 730.216370,101.306442
	C727.285950,113.110786 725.733093,125.290268 724.125977,137.378891
	C722.957764,146.166870 722.662170,155.071701 722.005676,163.926544
	C721.640564,168.852234 721.333313,173.782227 721.000000,179.191711
z"/>
<path fill="#F7F7F6" opacity="1.000000" stroke="none"
	d="
M474.019592,143.165985
	C477.690460,130.270721 481.385315,117.805954 484.984161,105.313545
	C487.472076,96.677475 489.828705,88.003571 492.240753,79.345673
	C492.582520,78.118965 492.906128,76.887207 493.385284,75.113007
	C485.671478,75.113007 478.422516,75.113007 470.499054,75.113007
	C473.487030,66.677650 476.233826,58.844097 479.087463,51.049664
	C479.271912,50.545830 480.241272,50.205807 480.909515,50.020882
	C494.217224,46.338055 507.519012,42.632206 520.853455,39.048016
	C537.916626,34.461548 555.005127,29.968966 572.092224,25.472015
	C573.294067,25.155704 574.574280,25.136969 575.769653,24.985966
	C566.432434,59.275101 557.225159,93.179970 547.959839,127.069000
	C544.022522,141.470200 540.018433,155.854050 535.857300,170.191422
	C535.522827,171.344147 533.753540,172.838196 532.609009,172.875214
	C525.146484,173.116592 517.672363,172.999283 509.966492,172.999283
	C520.405212,135.025650 530.737366,97.439606 541.249939,59.197121
	C535.085754,60.875687 529.333496,62.359749 523.648010,64.066399
	C522.627991,64.372604 521.361633,65.450119 521.087708,66.419731
	C511.968140,98.701416 502.982513,131.020905 493.910370,163.316071
	C491.266937,172.726151 488.421356,182.079422 485.534393,191.915405
	C503.594238,191.915405 521.039734,191.915405 539.582886,191.915405
	C537.959473,197.606186 535.827515,202.657898 535.200928,207.889893
	C534.419067,214.418701 531.151184,215.226639 525.393433,215.143234
	C501.757751,214.800888 478.114197,215.000183 453.783142,215.000183
	C460.597870,190.930542 467.300262,167.257614 474.019592,143.165985
z"/>
<path fill="#F7F7F6" opacity="1.000000" stroke="none"
	d="
M267.802307,215.340973
	C257.690948,212.668457 253.523148,204.986771 251.177368,196.390961
	C249.610733,190.650238 249.114578,184.468460 249.089233,178.480042
	C248.917831,137.983566 248.999817,97.485992 248.999817,56.988777
	C248.999817,55.179333 248.999802,53.369888 248.999802,51.281242
	C258.303101,51.281242 267.374725,51.281242 276.999634,51.281242
	C276.999634,53.009846 276.999664,54.778576 276.999664,56.547306
	C276.999603,97.711143 276.997833,138.874985 277.000977,180.038818
	C277.001648,188.887070 280.159668,191.807632 289.103790,192.058258
	C296.419037,192.263260 303.354370,191.261810 309.954651,187.473938
	C309.954651,142.296600 309.954651,96.984680 309.954651,51.336533
	C319.189423,51.336533 328.263245,51.336533 337.670044,51.336533
	C337.670044,105.540138 337.670044,159.942444 337.670044,214.672714
	C328.793030,214.672714 319.719604,214.672714 310.288818,214.672714
	C310.288818,207.769333 310.288818,200.677414 310.288818,193.585510
	C309.916870,193.448349 309.544922,193.311172 309.172974,193.174011
	C306.448059,198.455597 303.189880,203.540863 301.152374,209.075516
	C299.221924,214.319412 295.483521,216.730362 290.720154,216.823883
	C283.192902,216.971649 275.645142,216.077682 267.802307,215.340973
z"/>
<path fill="#F7F7F6" opacity="1.000000" stroke="none"
	d="
M226.008362,66.074890
	C231.332657,73.897743 229.873398,82.445221 229.884140,90.709991
	C229.885452,91.728416 228.659042,93.137779 227.635254,93.706024
	C220.073074,97.903458 212.417953,101.933418 204.000198,106.439987
	C204.000198,100.325996 204.126556,94.776672 203.948471,89.237122
	C203.855255,86.337440 203.546188,83.366493 202.773712,80.583397
	C201.241638,75.063667 198.190720,73.012703 192.399887,73.000862
	C190.067566,72.996094 187.704239,73.246117 185.408310,72.957062
	C176.071594,71.781525 171.478058,78.225151 171.108459,86.413849
	C170.123962,108.225410 169.252670,130.059372 169.178680,151.887283
	C169.142899,162.447968 170.919769,173.023300 172.032516,183.575485
	C172.526871,188.263397 175.298294,191.671478 179.913879,192.260193
	C185.437195,192.964706 191.236725,193.538651 196.643021,192.597519
	C203.042770,191.483414 204.967957,185.675964 205.993027,179.872467
	C206.359360,177.798508 206.915604,175.714935 206.938431,173.630859
	C207.041077,164.252747 206.983185,154.872864 206.983185,145.112091
	C199.612747,145.112091 191.516495,145.112091 182.502060,145.112091
	C184.713760,137.870850 186.649002,131.180817 188.903107,124.599968
	C189.186676,123.772102 191.145538,123.076851 192.333984,123.067619
	C205.988632,122.961487 219.644394,122.999992 233.974518,122.999992
	C233.974518,131.661926 234.098175,140.244904 233.935089,148.822433
	C233.806656,155.576691 233.600006,162.351440 232.935425,169.068344
	C231.935791,179.171570 231.724945,189.531494 226.651749,198.746124
	C220.157394,210.542053 209.757797,216.455093 196.564209,216.873642
	C188.202484,217.138916 179.453445,217.530396 171.493317,215.478577
	C156.274841,211.555801 147.983063,200.171936 145.057007,185.090820
	C139.809479,158.044754 142.082016,130.641129 142.313004,103.405212
	C142.403183,92.771713 145.144989,81.912933 148.215469,71.614861
	C152.100052,58.586334 164.502762,50.996593 177.769455,48.912235
	C186.822586,47.489876 195.636353,47.918156 204.482010,49.983143
	C213.890137,52.179432 221.572708,56.670063 226.008362,66.074890
z"/>
<path fill="#F7F7F6" opacity="1.000000" stroke="none"
	d="
M384.397339,141.406479
	C384.059662,158.029449 384.059662,174.307373 384.059662,190.939789
	C398.802582,190.939789 413.228699,190.939789 428.356598,190.939789
	C426.036896,199.233002 423.859009,207.019241 421.660004,214.880997
	C399.890228,214.880997 378.266266,214.880997 356.320984,214.880997
	C356.320984,160.465866 356.320984,106.087234 356.320984,51.287270
	C357.311523,51.205959 358.566010,51.014591 359.820709,51.013268
	C378.141479,50.993942 396.464874,51.163567 414.780914,50.868767
	C418.672974,50.806126 420.017456,52.469967 420.838837,55.544556
	C422.533783,61.888878 424.192017,68.243019 425.956970,74.940819
	C412.045349,74.940819 398.285034,74.940819 384.264313,74.940819
	C384.264313,88.999374 384.264313,102.730957 384.264313,116.987015
	C395.121948,116.987015 405.996063,116.987015 417.223572,116.987015
	C414.928711,125.275276 412.793884,132.985489 410.557800,141.061447
	C402.018860,141.061447 393.376923,141.061447 384.397339,141.406479
z"/>
<path fill="#F7F7F6" opacity="1.000000" stroke="none"
	d="
M45.999805,166.000000
	C45.999805,174.473160 45.999805,182.446335 45.999805,190.814941
	C59.616947,190.814941 73.026672,190.814941 87.385773,190.814941
	C86.097466,196.102554 85.028259,200.843552 83.780716,205.537140
	C81.262657,215.010818 81.222679,215.000183 71.313675,215.000183
	C54.029625,215.000183 36.745575,215.000198 19.231777,215.000198
	C19.231777,160.285965 19.231777,105.907867 19.231777,51.264725
	C28.000292,51.264725 36.734676,51.264725 45.999805,51.264725
	C45.999805,89.346466 45.999805,127.423233 45.999805,166.000000
z"/>
<path fill="#F7F7F6" opacity="1.000000" stroke="none"
	d="
M97.999992,82.000000
	C97.999992,71.524338 97.999992,61.548679 97.999992,51.287247
	C106.956619,51.287247 115.694458,51.287247 124.717514,51.287247
	C124.717514,105.631714 124.717514,160.028534 124.717514,214.713013
	C116.043098,214.713013 107.305336,214.713013 97.999992,214.713013
	C97.999992,170.677872 97.999992,126.588936 97.999992,82.000000
z"/>
</svg>
