<?xml version="1.0" encoding="UTF-8" standalone="no"?>
<!DOCTYPE svg PUBLIC "-//W3C//DTD SVG 1.1//EN" "http://www.w3.org/Graphics/SVG/1.1/DTD/svg11.dtd">
<svg width="100%" height="100%" viewBox="0 0 1360 1385" version="1.1" xmlns="http://www.w3.org/2000/svg" xmlns:xlink="http://www.w3.org/1999/xlink" xml:space="preserve" xmlns:serif="http://www.serif.com/" style="fill-rule:evenodd;clip-rule:evenodd;stroke-linejoin:round;stroke-miterlimit:2;">
    <g id="Page-1" serif:id="Page 1" transform="matrix(3.996599,0,0,4.069983,0,0)">
        <rect x="0" y="0" width="340.157" height="340.157" style="fill:none;"/>
        <g id="Calque-1" serif:id="Calque 1" transform="matrix(1.042553,0,0,1.023755,-6.513645,-8.080533)">
            <g transform="matrix(1,0,0,1,-0.465385,0.216665)">
                <g transform="matrix(1,0,0,1,0,-253.061)">
                    <path d="M288.687,289.272C250.574,279.048 212.808,275.107 178.994,274.654C104.477,273.693 48.663,289.272 48.663,289.272C43.788,300.372 39.754,310.436 36.372,319.525L300.956,319.525C297.593,310.427 293.573,300.386 288.687,289.272" style="fill:white;fill-rule:nonzero;"/>
                </g>
                <g transform="matrix(1,0,0,1,0,-1.382)">
                    <path d="M98.191,87.287C85.624,88.338 73.122,89.607 61.392,90.881C49.647,92.184 38.637,93.568 29.09,94.959C38.573,93.568 49.729,92.184 61.392,90.881C73.19,89.577 85.542,88.328 98.191,87.287M180.848,12.796C101.441,11.76 41.969,28.382 41.969,28.382C8.761,103.996 11.257,134.898 11.257,134.898C11.257,165.404 26.528,191.205 43.066,212.572C79.98,260.088 115.961,290.814 167.737,329.008C168.476,329.559 169.099,329.732 169.773,329.732C170.543,329.779 171.149,329.559 171.806,329.008C223.586,290.758 259.565,260.088 296.43,212.572C312.968,191.205 328.485,165.404 328.485,134.898C328.485,133.546 328.308,131.994 328.239,130.607C328.226,130.236 328.308,129.73 328.239,129.238C328.239,128.76 328.075,128.254 328.043,127.703C327.963,127.26 328.075,126.787 328.043,126.318C327.963,125.826 327.879,125.416 327.815,124.982C326.304,110.607 320.433,79.928 297.792,28.382C257.151,17.478 216.941,13.26 180.848,12.796" style="fill:white;fill-rule:nonzero;"/>
                </g>
                <g transform="matrix(1,0,0,1,0,-1.3)">
                    <path d="M104.704,94.842C93.302,95.793 81.918,96.941 71.254,98.106C60.571,99.278 50.563,100.551 41.887,101.807C50.5,100.551 60.621,99.278 71.254,98.106C81.981,96.932 93.22,95.779 104.704,94.842M179.845,27.123C107.676,26.182 53.599,41.275 53.599,41.275C23.411,110.026 25.676,138.107 25.676,138.107C25.676,165.848 39.558,189.299 54.602,208.727C88.12,251.924 120.864,279.861 167.95,314.596C168.606,315.081 169.167,315.217 169.773,315.217C170.479,315.275 171.019,315.081 171.642,314.596C218.714,279.814 251.395,251.924 284.945,208.727C299.938,189.299 314.048,165.848 314.048,138.107C314.048,136.891 313.884,135.486 313.87,134.217C313.835,133.881 313.917,133.412 313.87,132.978C313.87,132.543 313.706,132.084 313.656,131.568C313.589,131.174 313.706,130.725 313.656,130.314C313.589,129.878 313.492,129.498 313.474,129.088C312.079,116.041 306.747,88.15 286.176,41.275C249.243,31.375 212.657,27.553 179.845,27.123" style="fill:rgb(18,13,19);fill-rule:nonzero;"/>
                </g>
                <g transform="matrix(1,0,0,1,0,-229.741)">
                    <path d="M227.128,292.242C226.999,292.242 226.835,292.3 226.718,292.3C226.835,292.242 226.964,292.242 227.128,292.242C226.867,287.543 223.127,284.662 219.581,282.251C216.039,279.865 212.69,277.83 212.594,275.494C212.594,275.392 212.575,275.334 212.575,275.228C212.594,273.499 213.988,273.046 215.364,272.998C215.515,272.998 215.61,273.013 215.679,273.046C215.972,273.063 216.236,273.147 216.581,273.197C218.121,273.555 220.368,274.605 222.715,277.968C222.78,278.149 222.879,278.313 223.012,278.427C223.144,278.313 223.291,278.166 223.422,278.002C224.355,277.066 224.62,275.74 224.62,274.615L224.62,274.113C224.62,273.4 224.503,272.882 224.292,272.43C224.292,272.318 224.292,272.318 224.275,272.259C224.257,272.226 224.16,272.203 224.128,272.144C222.715,271.218 220.09,269.496 216.039,269.191L215.301,269.191C212.644,269.158 210.606,269.978 209.245,271.431C207.899,272.819 207.262,274.704 207.229,276.689C207.229,276.912 207.229,277.076 207.262,277.345C207.541,281.702 211.066,284.589 214.348,286.959C217.713,289.314 220.812,291.349 220.894,293.226L220.894,293.541C220.812,295.615 219.074,296.107 217.188,296.156C216.991,296.156 216.809,296.107 216.645,296.107C214.462,295.982 211.938,294.639 210.019,292.416C209.901,292.242 209.772,292.078 209.608,291.996C209.458,292.078 209.362,292.3 209.245,292.431C208.854,293.062 208.638,293.81 208.589,294.482C208.589,294.505 208.589,294.639 208.638,294.752C208.917,297.696 212.562,300.297 216.991,300.626C217.284,300.658 217.565,300.658 217.844,300.658C223.34,300.74 227.095,297.428 227.128,292.931C227.195,292.685 227.128,292.464 227.128,292.242" style="fill:white;fill-rule:nonzero;"/>
                </g>
                <g transform="matrix(1,0,0,1,0,-216.917)">
                    <path d="M281.533,286.541C281.369,286.203 281.285,285.898 281.14,285.589C280.989,285.898 280.825,286.203 280.647,286.541C279.663,288.795 276.414,289.803 273.953,289.77C273.707,289.77 273.41,289.714 273.114,289.638C267.34,288.795 263.878,282.814 263.175,276.064C263.093,275.349 263.093,274.611 263.093,273.898C263.271,269.787 264.879,266.909 268.589,266.998L268.685,266.998C268.816,266.998 268.98,267.008 269.292,267.041C269.393,267.099 269.456,267.099 269.538,267.123C269.983,267.123 270.377,267.237 270.836,267.441C272.477,268.034 274.691,269.541 276.149,272.986C276.218,273.143 276.283,273.256 276.3,273.373C276.478,273.338 276.611,273.338 276.724,273.256C278.972,272.56 279.923,270.167 279.973,268.976L279.973,268.73C279.973,268.648 279.956,268.59 279.956,268.59C278.496,266.056 274.281,263.865 269.885,263.112C269.128,263.037 268.375,262.955 267.651,262.955C264.027,262.881 261.056,263.963 258.941,265.951C256.858,267.982 255.724,270.959 255.628,274.578C255.578,275.349 255.642,276.209 255.724,277.049C256.626,285.711 262.237,292.486 271.378,293.855C272.13,293.928 272.937,294.045 273.707,294.045C278.104,294.193 281.878,292.486 282.056,289.015C282.056,288.254 281.892,287.417 281.533,286.541" style="fill:rgb(238,191,0);fill-rule:nonzero;"/>
                </g>
                <g transform="matrix(1,0,0,1,0,-215.878)">
                    <path d="M61.984,287.583C64.591,278.667 67.07,269.756 69.71,261.119C63.543,261.129 61.835,263.836 61.392,265.041C59.605,270.422 51.73,294.916 51.73,294.916C56.488,294.033 64.509,292.514 69.136,291.684C69.136,291.684 71.515,291.447 72.417,286.428C72.466,286.205 72.499,286.026 72.534,285.83C72.302,285.844 72.138,285.862 71.925,285.862C68.711,286.428 65.151,286.978 61.984,287.583" style="fill:white;fill-rule:nonzero;"/>
                </g>
                <g transform="matrix(1,0,0,1,0,-230.1)">
                    <path d="M140.324,268.599C139.929,268.566 139.519,268.509 139.094,268.509C136.237,268.552 132.431,269.468 130.727,273.3C127.46,279.568 124.179,285.851 120.979,292.125C119.749,287.573 118.207,280.821 117.042,275.751C117.009,275.662 116.979,275.528 116.96,275.423C116.617,274.177 116.158,273.146 115.601,272.407C114.384,270.717 112.629,270.173 111.007,270.114C109.298,270.028 107.89,270.521 107.89,270.521L107.329,273.556L107.329,273.638C105.558,282.97 103.82,292.355 102.112,301.748C103.77,301.552 105.429,301.378 107.069,301.2C108.382,294.628 109.694,288.099 111.007,281.569C112.415,287.081 114.73,296.341 115.847,300.173C115.86,300.345 115.929,300.403 115.929,300.568C116.043,300.509 116.188,300.509 116.322,300.509C117.848,300.403 119.275,300.255 121.356,300.084L121.636,300.084C124.999,293.364 128.379,286.671 131.761,279.958C130.84,286.521 129.888,293.118 128.972,299.695C131.61,299.525 134.235,299.386 136.812,299.222C136.847,299.058 136.86,298.894 136.894,298.772C138.143,288.722 139.485,278.672 140.798,268.657C140.652,268.599 140.488,268.599 140.324,268.599" style="fill:white;fill-rule:nonzero;"/>
                </g>
                <g transform="matrix(1,0,0,1,0,-232.265)">
                    <path d="M201.993,300.705C202.108,290.395 202.157,281.1 202.239,270.829C196.894,270.74 197.336,274.218 197.336,274.218C197.369,282.986 197.336,288.491 197.336,290.376L197.336,290.49C194.843,287.648 188.182,279.525 184.343,275.068C184.244,275.055 184.144,274.954 184.062,274.842C183.687,274.365 183.309,273.955 182.995,273.52C179.73,270.248 175.598,270.248 174.499,270.307C174.531,280.19 174.745,290.887 174.809,300.796C176.563,300.813 178.286,300.904 180.027,300.928C179.878,294.168 179.599,286.687 179.453,279.937C184.917,286.251 190.495,293.299 195.893,299.688C195.893,299.688 198.025,302.174 201.993,300.705" style="fill:white;fill-rule:nonzero;"/>
                </g>
                <g transform="matrix(1,0,0,1,0,-226.46)">
                    <path d="M234.546,267.18L238.729,298.558C241.108,298.873 243.501,299.133 245.88,299.437C245.292,294.9 244.636,290.477 243.993,286.008C245.292,286.158 246.522,286.322 247.785,286.592L248.046,286.592C248.473,286.592 249.243,286.592 249.968,286.24C250.689,285.844 251.313,284.974 251.23,283.547C251.23,283.474 251.23,283.408 251.212,283.31L251.163,282.881C251.034,282.881 250.902,282.85 250.77,282.799C248.327,282.457 245.88,282.037 243.471,281.637C243.109,279.232 242.566,276.04 242.402,273.998C244.422,274.287 246.522,274.615 248.523,274.943C248.721,274.943 250.361,275.205 250.542,275.205C251.69,275.088 253.167,274.326 253.181,270.602L253.199,270.119L234.546,267.18Z" style="fill:rgb(238,191,0);fill-rule:nonzero;"/>
                </g>
                <g transform="matrix(1,0,0,1,0,-223.851)">
                    <path d="M96.273,265.834L82.82,267.674L76.127,298.811C81.558,298.026 88.38,297.074 93.827,296.278C95.043,295.949 96.077,295.26 96.733,292.947C97.026,291.726 97.075,290.666 97.075,290.666C92.843,291.274 88.676,291.824 84.429,292.514C85.003,289.912 85.542,287.313 86.151,284.639C87.642,284.416 90.335,283.983 91.907,283.687C92.153,283.654 93.253,283.549 94.108,281.653C94.155,281.594 94.204,281.512 94.254,281.416C94.601,280.354 94.647,279.356 94.647,279.07C92.121,279.428 89.644,279.848 87.119,280.19C87.628,277.666 88.316,274.844 88.84,272.334C91.12,271.881 94.729,271.268 96.979,270.897C96.979,270.897 98.439,270.806 99.504,268.715L99.555,268.673C99.604,268.561 99.604,268.518 99.651,268.459C100.293,267.041 100.375,265.549 100.375,265.197C98.784,265.424 97.567,265.64 96.273,265.834" style="fill:white;fill-rule:nonzero;"/>
                </g>
                <g transform="matrix(1,0,0,1,0,-233.554)">
                    <path d="M162.996,302.217C165.604,302.193 168.215,302.193 170.808,302.102C170.726,301.928 170.644,301.705 170.594,301.479C170.329,300.665 170.034,299.818 169.755,299.008C169.609,298.616 169.479,298.188 169.296,297.712C169.117,297.039 168.921,296.451 168.738,295.809C165.981,287.54 163.274,279.354 160.485,271.104C160.403,271.104 160.291,271.094 160.19,271.094C159.799,271.068 159.452,271.068 159.091,271.068C156.105,271.035 153.581,272.252 152.547,275.244C148.855,284.366 145.097,293.53 141.405,302.676C142.488,302.594 143.637,302.554 144.754,302.535C146.048,302.453 147.196,302.102 147.935,300.475C148.46,299.041 148.855,298.023 149.411,296.615L155.041,296.615C156.813,296.615 158.14,295.654 158.175,293.217C158.188,293.01 158.188,292.846 158.188,292.658C155.91,292.678 153.218,292.701 150.888,292.701C152.397,288.682 154.284,283.76 155.843,279.674C158.238,287.162 160.636,294.709 162.996,302.217" style="fill:white;fill-rule:nonzero;"/>
                </g>
                <g transform="matrix(259.825409,0,0,260.371063,71.75,314.483227)">
                    <path d="M0.434,-0.868C0.423,-0.865 0.365,-0.877 0.354,-0.877C0.309,-0.877 0.242,-0.871 0.191,-0.859C0.16,-0.851 0.159,-0.851 0.127,-0.849C0.039,-0.841 -0.048,-0.832 -0.115,-0.822C-0.135,-0.78 -0.17,-0.665 -0.073,-0.492C-0.073,-0.49 -0.072,-0.488 -0.071,-0.487C-0.032,-0.43 0.032,-0.35 0.134,-0.262C0.199,-0.205 0.279,-0.145 0.378,-0.086C0.444,-0.125 0.501,-0.165 0.552,-0.204C0.573,-0.221 0.593,-0.238 0.612,-0.253C0.719,-0.345 0.786,-0.429 0.826,-0.486C0.827,-0.488 0.828,-0.49 0.829,-0.492C0.925,-0.665 0.89,-0.78 0.87,-0.822C0.797,-0.833 0.7,-0.843 0.604,-0.85C0.589,-0.852 0.591,-0.855 0.576,-0.855C0.541,-0.877 0.483,-0.899 0.444,-0.9C0.436,-0.9 0.45,-0.873 0.434,-0.868Z" style="fill:url(#_Radial1);fill-rule:nonzero;"/>
                </g>
                <g transform="matrix(222.566025,0,0,223.033432,85.25,205.284227)">
                    <path d="M0.623,-0.195C0.62,-0.166 0.66,-0.143 0.66,-0.143L0.682,-0.301C0.682,-0.301 0.625,-0.223 0.623,-0.195Z" style="fill:url(#_Radial2);fill-rule:nonzero;"/>
                </g>
                <g transform="matrix(218.564209,-10.502609,10.480713,219.023758,90.33526,271.463847)">
                    <path d="M0.149,-0.163C0.066,-0.443 0.19,-0.608 0.19,-0.608C-0.004,-0.421 0.149,-0.163 0.149,-0.163Z" style="fill:url(#_Radial3);fill-rule:nonzero;"/>
                </g>
                <g transform="matrix(52.071091,52.071091,52.071091,-52.071091,236.870105,128.027617)">
                    <path d="M0.677,0.099C0.77,-0.012 0.949,-0.306 0.996,-0.746C0.996,-0.746 1.084,0.12 0.45,0.604C0.332,0.687 0.234,0.728 0.183,0.746C0.12,0.697 0.069,0.657 -0,0.601C0.291,0.505 0.522,0.285 0.677,0.099Z" style="fill:url(#_Linear4);fill-rule:nonzero;"/>
                </g>
                <g transform="matrix(217.801727,0,0,218.259018,82.25,236.426227)">
                    <path d="M0.457,-0.689C0.416,-0.697 0.368,-0.701 0.314,-0.7C0.209,-0.698 0.118,-0.679 0.043,-0.654L0.023,-0.647C0.004,-0.646 -0.015,-0.644 -0.034,-0.642C-0.08,-0.549 -0.09,-0.448 -0.081,-0.354C-0.075,-0.305 -0.056,-0.197 0.038,-0.082C0.038,-0.082 -0.19,-0.267 -0.154,-0.534C-0.146,-0.581 -0.132,-0.615 -0.124,-0.631C-0.145,-0.629 -0.166,-0.626 -0.186,-0.623C-0.209,-0.573 -0.251,-0.435 -0.136,-0.229C-0.135,-0.227 -0.134,-0.225 -0.132,-0.223C-0.087,-0.156 -0.01,-0.06 0.111,0.045C0.034,-0.117 0.059,-0.29 0.085,-0.355C0.157,-0.533 0.331,-0.607 0.479,-0.613C0.331,-0.618 0.085,-0.584 0.009,-0.284C0.009,-0.284 0.055,-0.52 -0.046,-0.53C-0.046,-0.53 -0.042,-0.535 -0.036,-0.54C-0.013,-0.562 0.053,-0.615 0.16,-0.648C0.181,-0.654 0.204,-0.659 0.22,-0.663C0.265,-0.672 0.318,-0.677 0.375,-0.675C0.392,-0.674 0.409,-0.673 0.425,-0.671L0.424,-0.671C0.424,-0.671 0.425,-0.671 0.426,-0.671C0.431,-0.671 0.437,-0.67 0.442,-0.669C0.444,-0.669 0.446,-0.669 0.449,-0.668C0.455,-0.668 0.461,-0.668 0.467,-0.668C0.487,-0.671 0.501,-0.68 0.486,-0.708C0.486,-0.708 0.556,-0.698 0.62,-0.661C0.661,-0.637 0.699,-0.603 0.715,-0.554L0.797,-0.513L0.734,-0.488C0.727,-0.31 0.68,-0.082 0.68,-0.082L0.598,-0.098L0.548,-0.262L0.536,-0.264C0.52,-0.269 0.491,-0.282 0.482,-0.325C0.472,-0.373 0.507,-0.426 0.507,-0.426C0.507,-0.426 0.423,-0.384 0.444,-0.284C0.447,-0.268 0.454,-0.255 0.462,-0.244C0.371,-0.056 0.556,0.08 0.61,0.114C0.636,0.094 0.66,0.074 0.682,0.055C0.615,0.03 0.56,-0.01 0.525,-0.058C0.508,-0.08 0.497,-0.102 0.491,-0.123C0.484,-0.144 0.481,-0.165 0.481,-0.187C0.481,-0.199 0.482,-0.211 0.484,-0.223C0.504,-0.209 0.525,-0.203 0.536,-0.201L0.586,-0.073L0.7,-0.056C0.7,-0.056 0.756,-0.261 0.775,-0.434C0.792,-0.424 0.798,-0.389 0.798,-0.389C0.84,-0.429 0.811,-0.471 0.795,-0.486C0.795,-0.486 0.795,-0.486 0.795,-0.486L0.838,-0.513L0.754,-0.558C0.746,-0.582 0.725,-0.621 0.673,-0.657C0.629,-0.687 0.564,-0.714 0.465,-0.726C0.465,-0.726 0.479,-0.691 0.457,-0.689Z" style="fill:url(#_Radial5);fill-rule:nonzero;"/>
                </g>
            </g>
        </g>
    </g>
    <defs>
        <radialGradient id="_Radial1" cx="0" cy="0" r="1" gradientUnits="userSpaceOnUse" gradientTransform="matrix(1,0,0,-1,0,-0.986029)"><stop offset="0" style="stop-color:rgb(245,170,99);stop-opacity:1"/><stop offset="0.32" style="stop-color:rgb(221,5,31);stop-opacity:1"/><stop offset="1" style="stop-color:rgb(125,23,28);stop-opacity:1"/></radialGradient>
        <radialGradient id="_Radial2" cx="0" cy="0" r="1" gradientUnits="userSpaceOnUse" gradientTransform="matrix(1,0,0,-1,0,-0.444034)"><stop offset="0" style="stop-color:white;stop-opacity:1"/><stop offset="0.28" style="stop-color:rgb(238,191,0);stop-opacity:1"/><stop offset="1" style="stop-color:rgb(185,120,21);stop-opacity:1"/></radialGradient>
        <radialGradient id="_Radial3" cx="0" cy="0" r="1" gradientUnits="userSpaceOnUse" gradientTransform="matrix(1,0,0,-1,0,-0.771442)"><stop offset="0" style="stop-color:white;stop-opacity:1"/><stop offset="0.28" style="stop-color:rgb(238,191,0);stop-opacity:1"/><stop offset="1" style="stop-color:rgb(185,120,21);stop-opacity:1"/></radialGradient>
        <linearGradient id="_Linear4" x1="0" y1="0" x2="1" y2="0" gradientUnits="userSpaceOnUse" gradientTransform="matrix(1,0,0,-1,0,0)"><stop offset="0" style="stop-color:rgb(238,191,0);stop-opacity:1"/><stop offset="0.01" style="stop-color:rgb(238,191,0);stop-opacity:1"/><stop offset="1" style="stop-color:rgb(185,120,21);stop-opacity:1"/></linearGradient>
        <radialGradient id="_Radial5" cx="0" cy="0" r="1" gradientUnits="userSpaceOnUse" gradientTransform="matrix(1,0,0,-1,0,-0.612467)"><stop offset="0" style="stop-color:white;stop-opacity:1"/><stop offset="0.28" style="stop-color:rgb(238,191,0);stop-opacity:1"/><stop offset="1" style="stop-color:rgb(185,120,21);stop-opacity:1"/></radialGradient>
    </defs>
</svg>
